<svg width="391" height="1401" viewBox="0 0 391 1401" fill="none" xmlns="http://www.w3.org/2000/svg">
<g opacity="0.7">
<rect x="0.5" y="0.5" width="390" height="1400" rx="4.5" stroke="#9747FF" stroke-dasharray="10 5"/>
<g opacity="0.7">
<path d="M255.5 858C255.5 864.529 253.606 870.521 250.585 874.694C247.585 878.836 244.044 880.5 241 880.5C237.956 880.5 234.415 878.836 231.415 874.694C228.394 870.521 226.5 864.529 226.5 858" stroke="#2A9D8F" stroke-width="13"/>
<path d="M270.5 857C270.5 867.922 267.091 878.168 261.337 885.521C255.612 892.836 248.238 896.5 241 896.5C233.762 896.5 226.388 892.836 220.663 885.521C214.909 878.168 211.5 867.922 211.5 857" stroke="#1D4B45" stroke-width="13"/>
<path d="M285.5 856C285.5 871.377 280.543 885.917 272.01 896.458C263.507 906.962 252.305 912.5 241 912.5C229.695 912.5 218.493 906.962 209.99 896.458C201.457 885.917 196.5 871.377 196.5 856" stroke="#F96F24" stroke-width="13"/>
<path d="M300.5 854.5C300.5 874.498 293.976 893.478 282.642 907.301C271.339 921.088 256.317 928.5 241 928.5C225.683 928.5 210.661 921.088 199.357 907.301C188.024 893.478 181.5 874.498 181.5 854.5" stroke="#F4392A" stroke-width="13"/>
<path d="M315.5 853C315.5 877.343 307.415 900.504 293.286 917.423C279.187 934.308 260.342 943.5 241 943.5C221.658 943.5 202.813 934.308 188.714 917.423C174.585 900.504 166.5 877.343 166.5 853" stroke="#FBB428" stroke-width="13"/>
<rect x="220" y="862.769" width="265.467" height="13" transform="rotate(-90 220 862.769)" fill="#2A9D8F"/>
<rect x="249" y="862.769" width="862.769" height="13" transform="rotate(-90 249 862.769)" fill="#2A9D8F"/>
<rect x="264" y="862.769" width="862.769" height="13" transform="rotate(-90 264 862.769)" fill="#1D4B45"/>
<rect x="160" y="862.769" width="265.467" height="13" transform="rotate(-90 160 862.769)" fill="#FBB428"/>
<rect x="279" y="862.769" width="862.769" height="13" transform="rotate(-90 279 862.769)" fill="#F96F24"/>
<rect x="294" y="862.769" width="862.769" height="13" transform="rotate(-90 294 862.769)" fill="#F4392A"/>
<rect x="309" y="862.769" width="862.769" height="13" transform="rotate(-90 309 862.769)" fill="#FBB428"/>
<rect x="205" y="862.769" width="265.467" height="13" transform="rotate(-90 205 862.769)" fill="#1D4B45"/>
<rect x="175" y="862.769" width="265.467" height="13" transform="rotate(-90 175 862.769)" fill="#F4392A"/>
<rect x="190" y="862.769" width="265.467" height="13" transform="rotate(-90 190 862.769)" fill="#F96F24"/>
<path d="M137.5 500.035C137.5 496.026 139.061 492.208 141.796 489.414C144.526 486.624 148.2 485.083 152 485.083C155.8 485.083 159.474 486.624 162.204 489.414C164.939 492.208 166.5 496.026 166.5 500.035" stroke="#FBB428" stroke-width="13"/>
<path d="M122.5 500.036C122.5 491.963 125.641 484.247 131.189 478.579C136.733 472.917 144.221 469.761 152 469.761C159.779 469.761 167.267 472.917 172.811 478.579C178.359 484.247 181.5 491.963 181.5 500.036" stroke="#F4392A" stroke-width="13"/>
<path d="M107.5 500.036C107.5 487.899 112.221 476.286 120.582 467.744C128.939 459.208 140.243 454.438 152 454.438C163.757 454.438 175.061 459.208 183.418 467.744C191.779 476.286 196.5 487.899 196.5 500.036" stroke="#F96F24" stroke-width="13"/>
<path d="M92.5 500.036C92.5 483.835 98.8016 468.324 109.976 456.909C121.145 445.499 136.265 439.115 152 439.115C167.735 439.115 182.855 445.499 194.024 456.909C205.198 468.324 211.5 483.835 211.5 500.036" stroke="#1D4B45" stroke-width="13"/>
<path d="M77.5 500.036C77.5 479.771 85.382 460.363 99.3692 446.074C113.352 431.791 132.287 423.792 152 423.792C171.713 423.792 190.648 431.791 204.631 446.074C218.618 460.363 226.5 479.771 226.5 500.036" stroke="#2A9D8F" stroke-width="13"/>
<rect x="173" y="499.014" width="177.745" height="13" transform="rotate(90 173 499.014)" fill="#FBB428"/>
<rect x="144" y="499.014" width="900.986" height="13" transform="rotate(90 144 499.014)" fill="#FBB428"/>
<rect x="129" y="499.014" width="900.986" height="13" transform="rotate(90 129 499.014)" fill="#F4392A"/>
<rect x="233" y="499.014" width="177.745" height="13" transform="rotate(90 233 499.014)" fill="#2A9D8F"/>
<rect x="114" y="499.014" width="900.986" height="13" transform="rotate(90 114 499.014)" fill="#F96F24"/>
<rect x="99" y="499.014" width="900.986" height="13" transform="rotate(90 99 499.014)" fill="#1D4B45"/>
<rect x="84" y="499.014" width="900.986" height="13" transform="rotate(90 84 499.014)" fill="#2A9D8F"/>
<rect x="188" y="499.014" width="177.745" height="13" transform="rotate(90 188 499.014)" fill="#F4392A"/>
<rect x="218" y="499.014" width="177.745" height="13" transform="rotate(90 218 499.014)" fill="#1D4B45"/>
<rect x="203" y="499.014" width="177.745" height="13" transform="rotate(90 203 499.014)" fill="#F96F24"/>
</g>
</g>
</svg>
