<svg width="50" height="48" viewBox="0 0 50 48" fill="none" xmlns="http://www.w3.org/2000/svg">
<mask id="path-1-inside-1_4783_219" fill="white">
<path d="M0 0H49.5V48H0V0Z"/>
</mask>
<path d="M0 0H49.5V48H0V0Z" fill="#FBB428"/>
<path d="M49.5 0H50.5V-1H49.5V0ZM49.5 48V49H50.5V48H49.5ZM0 1H49.5V-1H0V1ZM48.5 0V48H50.5V0H48.5ZM49.5 47H0V49H49.5V47Z" fill="#2A9D8F" mask="url(#path-1-inside-1_4783_219)"/>
<g filter="url(#filter0_d_4783_219)">
<path d="M27.6707 33.5123L18.1583 24L27.6707 14.4876C27.8643 14.294 27.8643 13.9801 27.6707 13.7865L26.6293 12.7452C26.4357 12.5516 26.1218 12.5516 25.9282 12.7452L15.5446 23.1288C15.0639 23.6101 15.0639 24.3899 15.5446 24.8712L25.9282 35.2548C26.1218 35.4484 26.4357 35.4484 26.6293 35.2548L27.6707 34.2134C27.8643 34.0198 27.8643 33.7059 27.6707 33.5123Z" fill="#1D6861"/>
</g>
<defs>
<filter id="filter0_d_4783_219" x="7.5" y="11" width="28" height="28" filterUnits="userSpaceOnUse" color-interpolation-filters="sRGB">
<feFlood flood-opacity="0" result="BackgroundImageFix"/>
<feColorMatrix in="SourceAlpha" type="matrix" values="0 0 0 0 0 0 0 0 0 0 0 0 0 0 0 0 0 0 127 0" result="hardAlpha"/>
<feOffset dy="1"/>
<feGaussianBlur stdDeviation="1"/>
<feComposite in2="hardAlpha" operator="out"/>
<feColorMatrix type="matrix" values="0 0 0 0 0 0 0 0 0 0 0 0 0 0 0 0 0 0 0.08 0"/>
<feBlend mode="normal" in2="BackgroundImageFix" result="effect1_dropShadow_4783_219"/>
<feBlend mode="normal" in="SourceGraphic" in2="effect1_dropShadow_4783_219" result="shape"/>
</filter>
</defs>
</svg>
